<?xml version="1.0" encoding="utf-8"?>
<!-- Generator: Adobe Illustrator 24.1.1, SVG Export Plug-In . SVG Version: 6.00 Build 0)  -->
<svg version="1.1" id="Layer_1" xmlns="http://www.w3.org/2000/svg" xmlns:xlink="http://www.w3.org/1999/xlink" x="0px" y="0px"
	 viewBox="0 0 376 142" style="enable-background:new 0 0 376 142;" xml:space="preserve">
<style type="text/css">
	.st0{fill:#FFFFFF;}
	.st1{fill-rule:evenodd;clip-rule:evenodd;fill:#FFFFFF;}
</style>
<path class="st0" d="M50.7,52.8v7.1h25.7v9c0,0.4-0.2,0.7-0.5,0.8c-0.3,0.1-1,0.2-2,0.2H51.2c-1,0-1.7-0.1-2.1-0.2
	c-0.3-0.1-0.5-0.4-0.5-0.8V47.3c0-0.3,0.2-0.5,0.5-0.6c0.4-0.1,1.1-0.2,2.1-0.2h43.4v-7.3H43.2c-8.5,0-12.8,2.8-12.8,8.4v21.3
	c0,5.5,4.3,8.2,12.8,8.2h31.2c1.9,0,3.6-0.4,5-1.2l1.1,1.2h14.2V52.8H50.7L50.7,52.8z"/>
<polygon class="st0" points="98.5,77.2 152.3,77.2 152.3,69.8 116.4,69.8 116.4,61.4 152.2,61.4 152.2,54 116.4,54 116.4,46.5 
	152.2,46.5 152.2,39.2 98.5,39.2 98.5,77.2 "/>
<polygon class="st0" points="156.2,77.2 166.6,77.2 166.6,49.9 196.5,77.2 217.4,77.2 217.4,39.1 206.5,39.1 206.5,66.3 174.1,39.2 
	156.2,39.2 156.2,77.2 "/>
<polygon class="st0" points="221.3,77.2 275,77.2 275,69.8 239.2,69.8 239.2,61.4 274.9,61.4 274.9,54 239.2,54 239.2,46.5 
	274.9,46.5 274.9,39.2 221.3,39.2 221.3,77.2 "/>
<path class="st1" d="M278.9,77.2l18.2,0.1V61.3h15.3l12.5,15.8h20.7l-13.4-16c3-0.2,5.2-0.7,6.6-1.5c1.4-0.5,2.4-1.4,3-2.5
	c0.7-1.2,1.1-2.5,1.1-4.1v-5.4c0-5.6-4.3-8.4-12.8-8.4h-51.3V77.2L278.9,77.2z M322.1,46.5c1,0,1.7,0.1,2,0.2
	c0.4,0.1,0.6,0.3,0.6,0.6v5.8c0,0.3-0.2,0.6-0.6,0.7c-0.3,0.1-1,0.2-2,0.2h-25v-7.5H322.1L322.1,46.5z"/>
<g>
	<rect x="52.2" y="84.2" class="st0" width="271.5" height="0.3"/>
</g>
<g>
	<path class="st0" d="M65.9,102.3L65.9,102.3c0.8-2.5,1.7-5.3,2.6-8.3c0.1-0.5,0.2-0.9,0.2-1c0-0.2-0.1-0.3-0.2-0.4
		c-0.1-0.1-0.4-0.1-0.8-0.1c-0.1,0-0.2,0-0.2-0.1c0-0.1,0.1-0.1,0.3-0.1c0.9,0,1.5,0,1.7,0c0.1,0,0.3,0,0.5,0c0.3,0,0.5,0,0.8,0
		c0.1,0,0.2,0,0.2,0.1c0,0.1,0,0.1-0.1,0.1c-0.1,0-0.3,0-0.6,0.1c-0.2,0.1-0.4,0.3-0.6,0.6c-0.2,0.3-0.3,0.7-0.5,1.2
		c-1,3.2-2,6.2-3,9.1c-0.2,0.6-0.3,1-0.4,1.1c-0.1,0.2-0.2,0.3-0.3,0.3c-0.1,0-0.1-0.1-0.2-0.2c-0.1-0.1-0.2-0.3-0.3-0.7l-3.2-9.1h0
		c-1.1,3-2.3,6.1-3.4,9.1c-0.1,0.3-0.2,0.6-0.3,0.7c-0.1,0.1-0.2,0.2-0.3,0.2c-0.1,0-0.1-0.1-0.2-0.2c-0.1-0.2-0.2-0.5-0.4-1
		l-2.9-9.7c-0.1-0.4-0.2-0.7-0.4-0.9c-0.1-0.2-0.3-0.3-0.5-0.4c-0.3-0.1-0.5-0.1-0.7-0.1c-0.1,0-0.1,0-0.2-0.1
		c0-0.1,0.1-0.1,0.3-0.1c1,0,1.6,0,1.9,0c0.1,0,0.3,0,0.6,0c0.3,0,0.7,0,1.1,0c0.2,0,0.3,0,0.3,0.1c0,0.1-0.1,0.1-0.2,0.1
		c-0.1,0-0.2,0-0.3,0c-0.1,0-0.2,0-0.4,0.1c-0.1,0-0.2,0.2-0.2,0.4c0,0,0,0.1,0,0.2c0,0.1,0,0.2,0.1,0.3c0.1,0.3,0.1,0.6,0.2,0.9
		c0.7,2.7,1.5,5.4,2.2,7.9h0l3.5-9.3c0.2-0.5,0.3-0.8,0.4-0.7c0.1,0,0.1,0.1,0.2,0.2c0.1,0.1,0.1,0.3,0.2,0.6L65.9,102.3z"/>
	<path class="st0" d="M84.1,99.8c0,1.6,0,2.8,0.1,3.5c0,0.2,0.1,0.4,0.2,0.6c0.1,0.2,0.2,0.3,0.5,0.3c0.3,0,0.5,0.1,0.7,0.1
		c0.1,0,0.1,0,0.1,0.1c0,0.1-0.1,0.1-0.3,0.1c-1,0-1.7,0-1.9,0c-0.3,0-0.8,0-1.5,0c-0.2,0-0.3,0-0.3-0.1c0-0.1,0-0.1,0.1-0.1
		c0.2,0,0.3,0,0.5-0.1c0.2,0,0.3-0.1,0.3-0.3c0.1-0.1,0.1-0.3,0.1-0.6c0.1-0.7,0.1-1.9,0.1-3.6v-2.9c0-2.2,0-3.4,0-3.5
		c0-0.5-0.2-0.9-0.5-0.9c-0.2,0-0.4-0.1-0.5-0.1c-0.1,0-0.1,0-0.1-0.1c0-0.1,0.1-0.1,0.3-0.1c0.8,0,1.3,0,1.6,0c0.1,0,0.3,0,0.6,0
		c0.3,0,0.7,0,0.9,0c0.2,0,0.3,0,0.3,0.1c0,0.1-0.1,0.1-0.1,0.1c-0.1,0-0.2,0-0.4,0c-0.2,0-0.3,0.1-0.4,0.3
		c-0.1,0.1-0.1,0.4-0.2,0.7c0,0.2,0,0.5,0,1c0,0.5,0,1.3,0,2.5V99.8z"/>
	<path class="st0" d="M99.5,102.3c0,0.7,0.1,1.1,0.2,1.4c0.1,0.3,0.2,0.4,0.4,0.5c0.3,0.1,0.6,0.1,0.8,0.1c0.1,0,0.1,0,0.1,0.1
		c0,0.1-0.1,0.1-0.3,0.1c-0.9,0-1.5,0-1.7,0c-0.2,0-0.7,0-1.5,0c-0.2,0-0.3,0-0.3-0.1c0-0.1,0-0.1,0.1-0.1c0.2,0,0.4,0,0.6-0.1
		c0.2-0.1,0.3-0.2,0.4-0.5c0.1-0.3,0.1-0.8,0.1-1.5l0-9.4c0-0.3,0-0.6,0-0.7c0-0.1,0.1-0.2,0.1-0.2c0.1,0,0.2,0.1,0.3,0.2
		c0.1,0.1,0.2,0.2,0.3,0.3c0.6,0.7,2.3,2.5,5,5.6c1.8,2,3.1,3.4,3.8,4.3l-0.2-8.3c0-0.5,0-0.9-0.1-1.1c-0.1-0.2-0.3-0.4-0.5-0.4
		c-0.3-0.1-0.6-0.1-0.8-0.1c-0.1,0-0.1,0-0.1-0.1c0-0.1,0.1-0.1,0.3-0.1c0.8,0,1.4,0,1.6,0c0.1,0,0.3,0,0.5,0c0.2,0,0.5,0,0.8,0
		c0.2,0,0.3,0,0.3,0.1c0,0.1-0.1,0.1-0.2,0.1c-0.1,0-0.2,0-0.4,0c-0.2,0-0.4,0.2-0.5,0.4c-0.1,0.2-0.1,0.6-0.1,1.1l0,9.6
		c0,0.5,0,0.8,0,1c0,0.1-0.1,0.2-0.1,0.2c0,0-0.4-0.3-1.2-1c-0.6-0.6-2-2.1-4.1-4.4c-2-2.3-3.4-3.8-4.1-4.7L99.5,102.3z"/>
	<path class="st0" d="M123.7,96.9c0-2.2,0-3.4,0-3.5c0-0.3-0.1-0.5-0.1-0.6c-0.1-0.2-0.3-0.3-0.5-0.3c-0.2,0-0.3,0-0.5,0
		c-0.1,0-0.1,0-0.1-0.1c0-0.1,0.1-0.1,0.3-0.1c0.9,0,1.5,0,1.8,0c0.1,0,0.4,0,0.8,0c0.4,0,0.9,0,1.3,0c0.4,0,0.9,0,1.4,0
		c0.5,0,1.1,0.1,1.7,0.2c0.6,0.1,1.2,0.3,1.7,0.5c0.6,0.3,1.1,0.7,1.5,1.2c0.4,0.4,0.8,1,1.1,1.6c0.3,0.7,0.5,1.5,0.5,2.5
		c0,1-0.2,1.9-0.5,2.7c-0.3,0.8-0.7,1.4-1.2,1.9c-0.2,0.2-0.4,0.4-0.6,0.6c-0.3,0.2-0.6,0.4-1,0.6c-0.8,0.4-1.8,0.6-3.2,0.7
		c-0.7,0-1.5,0-2.2-0.1c-0.7-0.1-1.2-0.1-1.3-0.1c-0.3,0-0.8,0-1.6,0c-0.2,0-0.3,0-0.3-0.1c0-0.1,0-0.1,0.1-0.1c0.2,0,0.3,0,0.5-0.1
		c0.2,0,0.3-0.1,0.3-0.3c0.1-0.1,0.1-0.3,0.1-0.6c0.1-0.7,0.1-1.9,0.1-3.6V96.9z M125,98.7c0,1.9,0,3.1,0,3.5c0,0.2,0,0.4,0.1,0.7
		c0,0.3,0,0.5,0.1,0.6c0.1,0.2,0.3,0.3,0.7,0.4c0.4,0.2,1,0.2,2,0.2c1.5,0,2.8-0.5,3.8-1.5c0.4-0.4,0.7-1,1-1.7
		c0.1-0.3,0.2-0.7,0.2-1.1c0-0.4,0.1-0.7,0.1-1.1c0-0.5,0-1-0.1-1.4c-0.1-0.4-0.2-0.8-0.4-1.1c-0.1-0.3-0.3-0.6-0.5-0.9
		c-0.2-0.2-0.3-0.5-0.5-0.6c-0.7-0.8-1.6-1.3-2.4-1.5c-0.9-0.2-1.8-0.3-2.7-0.3c-0.2,0-0.4,0-0.6,0c-0.2,0-0.4,0.1-0.5,0.1
		c-0.1,0.1-0.2,0.2-0.2,0.3c0,0.8,0,2,0,3.5V98.7z"/>
	<path class="st0" d="M174,102.4c0,0.3,0.1,0.6,0.2,1c0.1,0.3,0.3,0.6,0.6,0.7c0.5,0.1,0.8,0.2,1,0.1c0.1,0,0.1,0,0.1,0.1
		c0,0.1-0.1,0.1-0.3,0.1c-0.8,0-1.6,0-2.6-0.1c-0.3,0-0.5-0.1-0.4-0.2c0-0.1,0-0.1,0.1-0.1c0.1-0.1,0.1-0.3,0.1-0.6l-0.8-8.4h0
		l-3.9,8.5c-0.3,0.6-0.4,0.9-0.5,0.9c-0.1,0-0.2-0.2-0.5-0.8c-0.8-1.6-1.4-2.8-1.8-3.8c-0.7-1.5-1.4-3-2.1-4.7H163l-0.6,7.6
		c0,0.3,0,0.6,0,0.8c0,0.3,0.1,0.4,0.4,0.5c0.3,0.1,0.5,0.1,0.6,0.1c0.1,0,0.1,0,0.1,0.1c0,0.1-0.1,0.1-0.3,0.1c-0.7,0-1.2,0-1.5,0
		c-0.3,0-0.7,0-1.3,0c-0.2,0-0.3,0-0.3-0.1c0-0.1,0.1-0.1,0.2-0.1c0.1,0,0.3,0,0.5,0c0.3-0.1,0.4-0.2,0.5-0.5
		c0.1-0.3,0.1-0.5,0.1-0.9l1.1-10.7c0-0.2,0.1-0.3,0.2-0.3c0.1,0,0.2,0.1,0.2,0.2l4.8,10.3l4.6-10.3c0.1-0.2,0.1-0.2,0.2-0.3
		c0.1,0,0.1,0,0.1,0.1c0,0.1,0,0.2,0,0.3L174,102.4z"/>
	<path class="st0" d="M191.1,92.6c0.2-0.4,0.3-0.7,0.3-0.6c0.1,0,0.2,0.2,0.4,0.6c0.9,2.3,2.1,5.6,3.7,9.8c0.3,0.7,0.5,1.2,0.8,1.4
		c0.2,0.2,0.4,0.4,0.6,0.4c0.3,0.1,0.5,0.1,0.6,0.1c0.1,0,0.2,0,0.2,0.1c0,0.1-0.1,0.1-0.3,0.1c-0.4,0-1.2,0-2.5,0
		c-0.3,0-0.5,0-0.5-0.1c0-0.1,0-0.1,0.1-0.1c0.1,0,0.1-0.1,0.1-0.1c0-0.1,0-0.2,0-0.3l-1.5-4c0-0.1-0.1-0.1-0.1-0.1h-3.4
		c-0.1,0-0.1,0-0.2,0.1l-0.9,2.9c-0.1,0.4-0.2,0.8-0.2,1.1c0,0.2,0.1,0.3,0.2,0.3c0.1,0.1,0.2,0.1,0.4,0.1h0.2c0.1,0,0.2,0,0.2,0.1
		c0,0.1-0.1,0.1-0.2,0.1c-0.5,0-0.9,0-1.2,0c-0.3,0-0.9,0-1.8,0c-0.2,0-0.3,0-0.3-0.1c0-0.1,0.1-0.1,0.1-0.1c0.1,0,0.3,0,0.5,0
		c0.4-0.1,0.6-0.2,0.8-0.5c0.2-0.3,0.4-0.6,0.5-1L191.1,92.6z M192.7,99.1c0.1,0,0.1,0,0.1-0.1l-1.5-4.4c-0.1-0.3-0.2-0.3-0.2,0
		l-1.4,4.4c0,0.1,0,0.1,0,0.1H192.7z"/>
	<path class="st0" d="M214.7,104.8c-2.3,0-4-0.6-5.2-1.8c-0.7-0.7-1.2-1.5-1.5-2.4c-0.3-0.9-0.4-1.7-0.4-2.5c0-0.6,0.1-1.3,0.4-2.1
		c0.3-0.8,0.7-1.6,1.4-2.3c0.5-0.5,1.1-0.9,1.9-1.3c0.8-0.3,1.8-0.5,3-0.5c0.7,0,1.5,0.1,2.3,0.2c0.6,0.1,1.1,0.2,1.6,0.2
		c0.1,0,0.2,0.1,0.2,0.2c0,0.1,0,0.4-0.1,0.9c0,0.7,0,1.3,0,1.7c0,0.2-0.1,0.4-0.1,0.3c-0.1,0-0.1-0.1-0.1-0.3
		c0-0.3-0.1-0.7-0.2-0.9c-0.1-0.3-0.3-0.5-0.5-0.7c-0.6-0.6-1.7-0.9-3.2-0.9c-0.5,0-1,0-1.4,0.1c-0.4,0.1-0.7,0.2-1,0.3
		c-0.3,0.1-0.5,0.2-0.7,0.4c-0.2,0.1-0.4,0.3-0.5,0.4c-0.6,0.6-0.9,1.2-1.1,1.9c-0.2,0.7-0.3,1.5-0.3,2.3c0,1.6,0.5,3,1.6,4.1
		c1,1.2,2.4,1.8,4.1,1.8c0.6,0,1.1-0.1,1.6-0.2c0.5-0.1,0.8-0.3,1.2-0.6c0.2-0.2,0.3-0.4,0.4-0.7c0.1-0.3,0.2-0.5,0.2-0.7
		c0-0.2,0.1-0.2,0.2-0.2c0.1,0,0.1,0.1,0.1,0.2c0,0.1,0,0.4-0.1,0.9c-0.1,0.5-0.1,0.9-0.2,1.2c0,0.1-0.1,0.2-0.1,0.3
		c-0.1,0.1-0.1,0.1-0.3,0.2c-0.3,0.1-0.8,0.2-1.3,0.3C215.7,104.7,215.2,104.8,214.7,104.8L214.7,104.8z"/>
	<path class="st0" d="M241.2,99.8c0,1.6,0,2.8,0.1,3.5c0,0.2,0.1,0.4,0.2,0.6c0.1,0.2,0.2,0.3,0.5,0.3c0.3,0,0.5,0.1,0.7,0.1
		c0.1,0,0.1,0,0.1,0.1c0,0.1-0.1,0.1-0.3,0.1c-1,0-1.7,0-1.9,0c-0.3,0-0.8,0-1.5,0c-0.2,0-0.3,0-0.3-0.1c0-0.1,0-0.1,0.1-0.1
		c0.2,0,0.3,0,0.5-0.1c0.2,0,0.3-0.1,0.3-0.3c0.1-0.1,0.1-0.3,0.1-0.6c0.1-0.7,0.1-1.9,0.1-3.6v-1.7c0-0.1,0-0.1-0.1-0.1h-6.7
		c-0.1,0-0.1,0-0.1,0.1v1.7c0,1.6,0,2.8,0.1,3.6c0,0.2,0.1,0.4,0.2,0.6c0.1,0.2,0.2,0.3,0.5,0.3c0.3,0,0.5,0.1,0.7,0.1
		c0.1,0,0.1,0,0.1,0.1c0,0.1-0.1,0.1-0.3,0.1c-1,0-1.7,0-1.9,0c-0.3,0-0.8,0-1.5,0c-0.2,0-0.3,0-0.3-0.1c0-0.1,0-0.1,0.1-0.1
		c0.2,0,0.3,0,0.5-0.1c0.2,0,0.3-0.1,0.3-0.3c0.1-0.1,0.1-0.3,0.1-0.6c0.1-0.7,0.1-1.9,0.1-3.6v-2.9c0-2.2,0-3.4,0-3.5
		c0-0.3-0.1-0.5-0.1-0.6c-0.1-0.2-0.3-0.3-0.5-0.3c-0.2,0-0.3,0-0.5,0c-0.1,0-0.1,0-0.1-0.1c0-0.1,0.1-0.1,0.3-0.1
		c0.9,0,1.5,0,1.8,0c0.1,0,0.3,0,0.6,0c0.3,0,0.7,0,0.9,0c0.2,0,0.3,0,0.3,0.1c0,0.1-0.1,0.1-0.1,0.1c-0.1,0-0.2,0-0.4,0
		c-0.2,0-0.3,0.1-0.4,0.3c-0.1,0.1-0.1,0.4-0.2,0.7c0,0.2,0,0.5,0,1c0,0.5,0,1.3,0,2.5v0.3c0,0.1,0,0.1,0.1,0.1h6.7
		c0.1,0,0.1,0,0.1-0.1v-0.3c0-2.2,0-3.4,0-3.5c0-0.3-0.1-0.5-0.1-0.6c-0.1-0.2-0.3-0.3-0.5-0.3c-0.2,0-0.3,0-0.5,0
		c-0.1,0-0.1,0-0.1-0.1c0-0.1,0.1-0.1,0.3-0.1c0.9,0,1.5,0,1.8,0c0.1,0,0.3,0,0.6,0c0.3,0,0.7,0,0.9,0c0.2,0,0.3,0,0.3,0.1
		c0,0.1-0.1,0.1-0.1,0.1c-0.1,0-0.2,0-0.4,0c-0.2,0-0.3,0.1-0.4,0.3c-0.1,0.1-0.1,0.4-0.2,0.7c0,0.2,0,0.5,0,1c0,0.5,0,1.3,0,2.5
		V99.8z"/>
	<path class="st0" d="M257.8,99.8c0,1.6,0,2.8,0.1,3.5c0,0.2,0.1,0.4,0.2,0.6c0.1,0.2,0.2,0.3,0.5,0.3c0.3,0,0.5,0.1,0.7,0.1
		c0.1,0,0.1,0,0.1,0.1c0,0.1-0.1,0.1-0.3,0.1c-1,0-1.7,0-1.9,0c-0.3,0-0.8,0-1.5,0c-0.2,0-0.3,0-0.3-0.1c0-0.1,0-0.1,0.1-0.1
		c0.2,0,0.3,0,0.5-0.1c0.2,0,0.3-0.1,0.3-0.3c0.1-0.1,0.1-0.3,0.1-0.6c0.1-0.7,0.1-1.9,0.1-3.6v-2.9c0-2.2,0-3.4,0-3.5
		c0-0.5-0.2-0.9-0.5-0.9c-0.2,0-0.4-0.1-0.5-0.1c-0.1,0-0.1,0-0.1-0.1c0-0.1,0.1-0.1,0.3-0.1c0.8,0,1.3,0,1.6,0c0.1,0,0.3,0,0.6,0
		c0.3,0,0.7,0,0.9,0c0.2,0,0.3,0,0.3,0.1c0,0.1-0.1,0.1-0.1,0.1c-0.1,0-0.2,0-0.4,0c-0.2,0-0.3,0.1-0.4,0.3
		c-0.1,0.1-0.1,0.4-0.2,0.7c0,0.2,0,0.5,0,1c0,0.5,0,1.3,0,2.5V99.8z"/>
	<path class="st0" d="M273.2,102.3c0,0.7,0.1,1.1,0.2,1.4c0.1,0.3,0.2,0.4,0.4,0.5c0.3,0.1,0.6,0.1,0.8,0.1c0.1,0,0.1,0,0.1,0.1
		c0,0.1-0.1,0.1-0.3,0.1c-0.9,0-1.5,0-1.7,0c-0.2,0-0.7,0-1.5,0c-0.2,0-0.3,0-0.3-0.1c0-0.1,0-0.1,0.1-0.1c0.2,0,0.4,0,0.6-0.1
		c0.2-0.1,0.3-0.2,0.4-0.5c0.1-0.3,0.1-0.8,0.1-1.5l0-9.4c0-0.3,0-0.6,0-0.7c0-0.1,0.1-0.2,0.1-0.2c0.1,0,0.2,0.1,0.3,0.2
		c0.1,0.1,0.2,0.2,0.3,0.3c0.6,0.7,2.3,2.5,5,5.6c1.8,2,3.1,3.4,3.8,4.3l-0.2-8.3c0-0.5,0-0.9-0.1-1.1c-0.1-0.2-0.3-0.4-0.5-0.4
		c-0.3-0.1-0.6-0.1-0.8-0.1c-0.1,0-0.1,0-0.1-0.1c0-0.1,0.1-0.1,0.3-0.1c0.8,0,1.4,0,1.6,0c0.1,0,0.3,0,0.5,0c0.2,0,0.5,0,0.8,0
		c0.2,0,0.3,0,0.3,0.1c0,0.1-0.1,0.1-0.2,0.1c-0.1,0-0.2,0-0.4,0c-0.2,0-0.4,0.2-0.5,0.4c-0.1,0.2-0.1,0.6-0.1,1.1l0,9.6
		c0,0.5,0,0.8,0,1c0,0.1-0.1,0.2-0.1,0.2c0,0-0.4-0.3-1.2-1c-0.6-0.6-2-2.1-4.1-4.4c-2-2.3-3.4-3.8-4.1-4.7L273.2,102.3z"/>
	<path class="st0" d="M297.4,96.9c0-2.2,0-3.4,0-3.5c0-0.3-0.1-0.5-0.1-0.6c-0.1-0.2-0.3-0.3-0.5-0.3c-0.2,0-0.3,0-0.5,0
		c-0.1,0-0.1,0-0.1-0.1c0-0.1,0.1-0.1,0.3-0.1c0.9,0,1.5,0,1.8,0c1.1,0,2.3,0,3.6,0c0.3,0,0.5,0,0.7-0.1c0.1,0,0.1-0.1,0.2-0.1
		c0,0,0.1,0.1,0.1,0.1c0,0.1-0.1,0.3-0.1,0.8c0,0.3,0,0.7-0.1,1.1c0,0.1,0,0.2-0.1,0.2c-0.1,0-0.1-0.1-0.1-0.2c0-0.1,0-0.3-0.1-0.6
		c0-0.1-0.1-0.2-0.3-0.3c-0.2-0.1-0.4-0.2-0.9-0.2c-0.2,0-0.6,0-1.1,0c-0.5,0-0.9,0-1.1,0c-0.1,0-0.1,0.1-0.1,0.2v4.5
		c0,0.1,0,0.2,0.1,0.2c0.2,0,0.6,0,1.2,0c0.6,0,1.1,0,1.3,0c0.4,0,0.6-0.1,0.8-0.2c0.1-0.1,0.2-0.2,0.2-0.2c0.1,0,0.1,0,0.1,0.1
		c0,0.1-0.1,0.4-0.1,0.9c0,0.5-0.1,0.8-0.1,1c0,0.1,0,0.1,0,0.2c0,0.1,0,0.1-0.1,0.1c-0.1,0-0.1,0-0.1-0.1c0-0.1,0-0.3-0.1-0.5
		c0-0.1-0.1-0.2-0.2-0.4c-0.1-0.1-0.3-0.2-0.6-0.2c-0.8-0.1-1.6-0.1-2.3-0.1c-0.1,0-0.1,0-0.1,0.1v1.4c0,1,0,2,0,2.8
		c0,0.5,0.1,0.9,0.4,1.1c0.2,0.2,0.7,0.3,1.5,0.3c0.2,0,0.5,0,0.8,0c0.3,0,0.5-0.1,0.8-0.1c0.4-0.2,0.6-0.5,0.7-1.2
		c0-0.2,0.1-0.2,0.1-0.2c0.1,0,0.1,0.1,0.1,0.2c0,0.1,0,0.3-0.1,0.7c0,0.4-0.1,0.7-0.1,0.9c0,0.2-0.1,0.3-0.2,0.4
		c-0.1,0-0.3,0.1-0.7,0.1c-2.3,0-3.6-0.1-3.9-0.1c-0.3,0-0.8,0-1.6,0c-0.2,0-0.3,0-0.3-0.1c0-0.1,0-0.1,0.1-0.1c0.2,0,0.3,0,0.5-0.1
		c0.2,0,0.3-0.1,0.3-0.3c0.1-0.1,0.1-0.3,0.1-0.6c0.1-0.7,0.1-1.9,0.1-3.5V96.9z"/>
	<path class="st0" d="M317.5,104.8c-0.8,0-1.5-0.1-2.1-0.4c-0.1-0.1-0.2-0.1-0.2-0.2c0-0.1,0-0.2,0-0.4c0-0.9,0-1.4,0.1-1.7
		c0-0.2,0.1-0.3,0.1-0.3c0.1,0,0.1,0.1,0.1,0.2c0,0.2,0,0.4,0,0.6c0.1,0.6,0.4,1,0.9,1.3c0.4,0.3,0.9,0.4,1.5,0.4
		c0.8,0,1.3-0.2,1.7-0.7c0.4-0.4,0.6-0.9,0.6-1.5c0-0.5-0.1-1-0.4-1.5c-0.3-0.4-0.8-0.9-1.4-1.5l-0.7-0.6c-0.8-0.7-1.4-1.3-1.6-1.9
		c-0.3-0.6-0.4-1.1-0.4-1.7c0-1.9,1.1-2.9,3.3-2.9c0.3,0,0.6,0,0.8,0c0.2,0,0.4,0.1,0.6,0.1c0.3,0.1,0.5,0.1,0.6,0.1
		c0.1,0,0.2,0,0.2,0.1c0,0.1,0,0.6-0.1,1.7c0,0.3,0,0.4-0.1,0.4c-0.1,0-0.1-0.1-0.1-0.2c0-0.1,0-0.3-0.1-0.4c0-0.2-0.1-0.3-0.1-0.4
		c0-0.1-0.1-0.1-0.1-0.2c-0.1-0.1-0.2-0.2-0.3-0.3c-0.1-0.1-0.3-0.2-0.6-0.3c-0.3-0.1-0.6-0.1-0.9-0.1c-0.6,0-1,0.2-1.4,0.5
		c-0.4,0.3-0.6,0.8-0.6,1.4c0,0.4,0.1,0.8,0.4,1.2c0.3,0.4,0.8,0.9,1.5,1.5l0.4,0.4c0.9,0.7,1.5,1.4,1.9,2c0.3,0.6,0.4,1.2,0.4,1.8
		c0,0.3-0.1,0.8-0.3,1.3c-0.1,0.2-0.2,0.5-0.4,0.7c-0.2,0.2-0.4,0.5-0.7,0.7C319.2,104.5,318.4,104.8,317.5,104.8z"/>
</g>
</svg>
