<svg xmlns="http://www.w3.org/2000/svg" viewBox="0 0 315.27 65.7"><defs><style>.logo-1,.logo-3{fill:#575756;}.logo-2{fill:#e30613;}.logo-3{fill-rule:evenodd;}.logo-4{fill:none;stroke:#575756;stroke-miterlimit:3.86;stroke-width:0.28px;}</style></defs><path class="logo-1" d="M50.68,52.77v7.11h25.7v9a.8.8,0,0,1-.51.82,6.65,6.65,0,0,1-2,.2H51.19a7.81,7.81,0,0,1-2.13-.2.8.8,0,0,1-.51-.82V47.29a.57.57,0,0,1,.51-.61,7.42,7.42,0,0,1,2.13-.2H94.56V39.16H43.16q-12.79,0-12.79,8.43V68.92q0,8.24,12.79,8.23H74.35a9.8,9.8,0,0,0,5-1.22l1.11,1.22H94.67V52.77Z" transform="translate(-30.37 -39.06)"/><polygon class="logo-1" points="68.16 38.09 121.89 38.09 121.89 30.78 86.03 30.78 86.03 22.35 121.79 22.35 121.79 14.93 86.03 14.93 86.03 7.42 121.79 7.42 121.79 0.1 68.16 0.1 68.16 38.09 68.16 38.09"/><polygon class="logo-2" points="125.87 38.09 136.23 38.09 136.23 10.87 166.1 38.09 187.02 38.09 187.02 0 176.15 0 176.15 27.22 143.75 0.1 125.87 0.1 125.87 38.09 125.87 38.09"/><polygon class="logo-1" points="190.91 38.09 244.65 38.09 244.65 30.78 208.79 30.78 208.79 22.35 244.55 22.35 244.55 14.93 208.79 14.93 208.79 7.42 244.55 7.42 244.55 0.1 190.91 0.1 190.91 38.09 190.91 38.09"/><path class="logo-3" d="M278.9,77.15l18.18.1V61.31h15.34l12.49,15.84h20.72L332.22,61.1a16,16,0,0,0,6.61-1.52A6,6,0,0,0,341.88,57,7.35,7.35,0,0,0,343,53V47.59q0-8.43-12.8-8.43H278.9v38Zm43.17-30.67a6.42,6.42,0,0,1,2,.2c.41.07.61.27.61.61v5.79a.73.73,0,0,1-.61.71,6.42,6.42,0,0,1-2,.2h-25V46.48Z" transform="translate(-30.37 -39.06)"/><line class="logo-4" x1="21.88" y1="45.3" x2="293.39" y2="45.3"/><path class="logo-1" d="M65.86,102.29h.07q1.16-3.74,2.51-8.34a4.74,4.74,0,0,0,.18-1,.44.44,0,0,0-.16-.36,1.69,1.69,0,0,0-.76-.12c-.11,0-.16,0-.16-.12s.1-.11.28-.11c.91,0,1.46,0,1.67,0l.53,0,.79,0c.15,0,.22,0,.22.1s0,.13-.14.13a2.38,2.38,0,0,0-.56.08,1,1,0,0,0-.58.6c-.15.32-.31.7-.48,1.16l-3,9.1a10.37,10.37,0,0,1-.42,1.14c-.09.18-.18.27-.27.26s-.14-.07-.2-.2a3.06,3.06,0,0,1-.28-.65l-3.2-9.08h0q-1.7,4.58-3.41,9.06a7.14,7.14,0,0,1-.27.69.33.33,0,0,1-.26.18c-.07,0-.14-.08-.22-.25s-.19-.51-.36-1l-2.9-9.68a3.25,3.25,0,0,0-.37-.92,1.12,1.12,0,0,0-.53-.36,3.69,3.69,0,0,0-.73-.09.12.12,0,0,1-.15-.12c0-.07.1-.11.26-.11,1,0,1.63,0,1.93,0l.6,0,1.08,0c.21,0,.31,0,.3.11a.14.14,0,0,1-.17.12h-.28a1.06,1.06,0,0,0-.36.09q-.2.06-.21.39a1,1,0,0,0,0,.22,3.09,3.09,0,0,0,.06.34c.06.26.12.57.2.94.73,2.72,1.46,5.35,2.19,7.91h0L61.8,93c.21-.54.34-.79.4-.74s.14,0,.19.16.14.33.23.59Z" transform="translate(-30.37 -39.06)"/><path class="logo-1" d="M84.07,99.8c0,1.62,0,2.81.08,3.55a1.49,1.49,0,0,0,.15.58.57.57,0,0,0,.47.31,3.84,3.84,0,0,0,.71.06c.08,0,.12,0,.12.11s-.08.12-.25.12l-1.94,0-1.54,0c-.17,0-.26,0-.26-.12s0-.09.12-.1a1.59,1.59,0,0,0,.48-.07.45.45,0,0,0,.33-.31,2,2,0,0,0,.12-.58c.06-.75.09-1.93.09-3.55V96.92c0-2.19,0-3.36,0-3.52,0-.55-.2-.86-.54-.92a2.41,2.41,0,0,0-.49-.06c-.08,0-.13,0-.13-.1s.09-.13.26-.13c.75,0,1.29,0,1.59,0l.63,0,.91,0c.17,0,.26,0,.26.13a.12.12,0,0,1-.13.1,2.41,2.41,0,0,0-.4,0,.56.56,0,0,0-.42.27,1.29,1.29,0,0,0-.16.67c0,.21,0,.54,0,1s0,1.3,0,2.54Z" transform="translate(-30.37 -39.06)"/><path class="logo-1" d="M99.49,102.32a4.62,4.62,0,0,0,.17,1.39.7.7,0,0,0,.45.5,2.93,2.93,0,0,0,.78.1c.09,0,.13,0,.13.1s-.09.12-.28.12l-1.67,0-1.52,0c-.17,0-.25,0-.25-.12s0-.1.13-.1a2,2,0,0,0,.65-.1c.19,0,.33-.23.39-.53a10.71,10.71,0,0,0,.08-1.54l0-9.36a3.35,3.35,0,0,1,0-.67c0-.1.08-.15.13-.15a.58.58,0,0,1,.28.2l.27.33,5,5.6,3.8,4.26L107.93,94a3.91,3.91,0,0,0-.11-1.14.62.62,0,0,0-.51-.4,4.43,4.43,0,0,0-.77-.08q-.14,0-.12-.12c0-.07.1-.11.31-.11.82,0,1.37,0,1.65,0l.5,0,.84,0c.18,0,.28,0,.29.11s-.06.12-.18.12a2.53,2.53,0,0,0-.38,0,.58.58,0,0,0-.47.39,2.91,2.91,0,0,0-.12,1.07l0,9.56c0,.52,0,.84,0,1s-.06.19-.12.19-.42-.3-1.16-1-2-2.1-4.12-4.42S100,95.33,99.28,94.5Z" transform="translate(-30.37 -39.06)"/><path class="logo-1" d="M123.66,96.92c0-2.19,0-3.36,0-3.52a1.41,1.41,0,0,0-.14-.64.72.72,0,0,0-.54-.3,3,3,0,0,0-.54,0c-.08,0-.13,0-.13-.1s.09-.13.26-.13c.91,0,1.51,0,1.79,0l.79,0,1.34,0h1.4a10.87,10.87,0,0,1,1.66.17,6.42,6.42,0,0,1,1.75.54,5.75,5.75,0,0,1,2.6,2.81,6.56,6.56,0,0,1,.46,2.5,7,7,0,0,1-.52,2.69,6.23,6.23,0,0,1-1.19,1.91,6.3,6.3,0,0,1-.63.59,5,5,0,0,1-1,.62,7.11,7.11,0,0,1-3.17.67c-.72,0-1.46,0-2.2-.1s-1.18-.1-1.3-.1l-1.55,0c-.17,0-.26,0-.26-.12s0-.09.13-.1a1.58,1.58,0,0,0,.47-.07.45.45,0,0,0,.33-.31,2,2,0,0,0,.13-.58c0-.75.08-1.93.08-3.55ZM125,98.69q0,2.84,0,3.54c0,.2,0,.43.06.68a1.5,1.5,0,0,0,.11.56,1.43,1.43,0,0,0,.73.42,5.75,5.75,0,0,0,2,.23,5.11,5.11,0,0,0,3.78-1.52,4.54,4.54,0,0,0,.95-1.71,9.41,9.41,0,0,0,.24-1.08,7.87,7.87,0,0,0,.07-1.11,7,7,0,0,0-.13-1.43,5.17,5.17,0,0,0-.38-1.15,5.54,5.54,0,0,0-.49-.91,3.7,3.7,0,0,0-.52-.62A5.2,5.2,0,0,0,129,93.06a10.84,10.84,0,0,0-2.75-.31c-.16,0-.35,0-.56,0a2.77,2.77,0,0,0-.47.09.3.3,0,0,0-.18.33c0,.8,0,2,0,3.47Z" transform="translate(-30.37 -39.06)"/><path class="logo-1" d="M174,102.43a3.81,3.81,0,0,0,.21,1,1.16,1.16,0,0,0,.65.73,4.63,4.63,0,0,0,1,.15c.08,0,.13,0,.13.08s-.13.14-.34.14q-1.12,0-2.64-.09c-.31,0-.46-.09-.44-.17s0-.1.12-.11.1-.25.06-.59L172,95.16h-.05l-3.88,8.48c-.26.6-.43.89-.52.86s-.23-.23-.49-.75c-.78-1.58-1.39-2.84-1.85-3.79q-1-2.22-2.09-4.66H163l-.63,7.59c0,.27,0,.55,0,.83a.5.5,0,0,0,.4.51,4.39,4.39,0,0,0,.61.08c.07,0,.11,0,.13.08s-.1.14-.29.14l-1.47,0-1.32,0c-.18,0-.27,0-.27-.14s.05-.08.16-.08a1.51,1.51,0,0,0,.47,0,.7.7,0,0,0,.51-.49,5.32,5.32,0,0,0,.13-.87l1.14-10.65c0-.18.09-.28.17-.29s.17.08.24.25l4.84,10.27,4.65-10.26c.05-.16.13-.25.23-.26a.16.16,0,0,1,.15.1,1.84,1.84,0,0,1,0,.34Z" transform="translate(-30.37 -39.06)"/><path class="logo-1" d="M191.08,92.59c.17-.44.29-.65.35-.63s.2.18.36.59q1.29,3.53,3.68,9.85a4.26,4.26,0,0,0,.79,1.4,1.2,1.2,0,0,0,.57.41,1.77,1.77,0,0,0,.63.1c.11,0,.16,0,.16.1s-.12.12-.32.12l-2.48,0c-.32,0-.48,0-.48-.11s0-.1.12-.12a.22.22,0,0,0,.12-.14.53.53,0,0,0,0-.29l-1.47-4a.14.14,0,0,0-.14-.1h-3.4a.17.17,0,0,0-.16.13l-.95,2.9a3.39,3.39,0,0,0-.22,1.1.34.34,0,0,0,.22.34.67.67,0,0,0,.38.13H189c.1,0,.15,0,.15.1s-.08.12-.23.12l-1.24,0-1.78,0q-.3,0-.3-.12c0-.07.06-.1.14-.1a2.45,2.45,0,0,0,.46,0,1.19,1.19,0,0,0,.84-.5,3.41,3.41,0,0,0,.49-1Zm1.65,6.54c.08,0,.1,0,.07-.12l-1.51-4.41q-.1-.37-.24,0L189.66,99c0,.08,0,.12.05.12Z" transform="translate(-30.37 -39.06)"/><path class="logo-1" d="M214.7,104.76a7.2,7.2,0,0,1-5.22-1.76,6.14,6.14,0,0,1-1.52-2.38,7.78,7.78,0,0,1-.39-2.46,7.09,7.09,0,0,1,.36-2.1,6.1,6.1,0,0,1,1.41-2.35,5.42,5.42,0,0,1,1.87-1.25,7.91,7.91,0,0,1,2.95-.5,15,15,0,0,1,2.29.2c.59.11,1.13.2,1.61.24.15,0,.22.08.2.17s0,.39-.08.92c0,.71,0,1.27,0,1.68,0,.24-.06.36-.14.35s-.14-.12-.13-.35a2.62,2.62,0,0,0-.17-.94,2,2,0,0,0-.5-.72,4.69,4.69,0,0,0-3.15-.93,7.79,7.79,0,0,0-1.36.1,4.92,4.92,0,0,0-1,.28,4.49,4.49,0,0,0-.73.37,3.27,3.27,0,0,0-.51.45,4.12,4.12,0,0,0-1.13,1.92A7.91,7.91,0,0,0,209,98a6,6,0,0,0,1.6,4.15A5.2,5.2,0,0,0,214.7,104a6.33,6.33,0,0,0,1.59-.18,2.37,2.37,0,0,0,1.16-.64,2.12,2.12,0,0,0,.41-.72,3,3,0,0,0,.17-.65c0-.16.08-.25.16-.25s.11.1.11.25a7.72,7.72,0,0,1-.11.87c-.07.49-.15.89-.23,1.22a1.17,1.17,0,0,1-.13.29,1.11,1.11,0,0,1-.29.19,6.93,6.93,0,0,1-1.28.28,13.6,13.6,0,0,1-1.56.09Z" transform="translate(-30.37 -39.06)"/><path class="logo-1" d="M241.2,99.8c0,1.62,0,2.81.08,3.55a1.33,1.33,0,0,0,.16.58.54.54,0,0,0,.46.31,3.84,3.84,0,0,0,.71.06c.08,0,.12,0,.12.11s-.09.12-.25.12l-1.95,0-1.54,0c-.17,0-.25,0-.25-.12s0-.09.12-.1a1.59,1.59,0,0,0,.48-.07.48.48,0,0,0,.34-.31,2,2,0,0,0,.12-.58c0-.75.08-1.93.08-3.55V98.08a.09.09,0,0,0-.1-.09h-6.71c-.07,0-.1,0-.1.09V99.8c0,1.62,0,2.8.08,3.55a1.33,1.33,0,0,0,.16.58.55.55,0,0,0,.46.31,3.84,3.84,0,0,0,.71.06c.08,0,.13,0,.13.11s-.09.12-.26.12l-1.93,0-1.55,0c-.17,0-.25,0-.25-.12s0-.09.12-.1a1.49,1.49,0,0,0,.47-.07.48.48,0,0,0,.34-.31,2,2,0,0,0,.12-.58c.05-.75.08-1.93.08-3.55V96.92c0-2.19,0-3.36,0-3.52a1.41,1.41,0,0,0-.14-.64.72.72,0,0,0-.54-.3,2.93,2.93,0,0,0-.53,0c-.09,0-.13,0-.13-.1s.08-.13.25-.13c.91,0,1.51,0,1.79,0l.62,0,.92,0c.17,0,.25,0,.25.13a.11.11,0,0,1-.12.1,2.51,2.51,0,0,0-.41,0,.56.56,0,0,0-.42.27,1.53,1.53,0,0,0-.16.67c0,.21,0,.54,0,1s0,1.3,0,2.54v.34c0,.07,0,.11.1.1h6.71c.06,0,.09,0,.1-.1v-.34c0-2.2,0-3.37,0-3.53a1.41,1.41,0,0,0-.14-.64.76.76,0,0,0-.55-.3,2.93,2.93,0,0,0-.53,0c-.09,0-.13,0-.13-.1s.08-.13.25-.13c.92,0,1.51,0,1.78,0l.64,0,.91,0c.17,0,.26,0,.26.13a.12.12,0,0,1-.13.1,2.31,2.31,0,0,0-.4,0,.56.56,0,0,0-.42.27,1.41,1.41,0,0,0-.15.67q0,.31,0,1c0,.46,0,1.3,0,2.54Z" transform="translate(-30.37 -39.06)"/><path class="logo-1" d="M257.78,99.8c0,1.62,0,2.81.08,3.55a1.49,1.49,0,0,0,.15.58.59.59,0,0,0,.47.31,3.84,3.84,0,0,0,.71.06c.08,0,.12,0,.12.11s-.08.12-.25.12l-1.94,0-1.54,0c-.17,0-.26,0-.26-.12s0-.09.13-.1a1.58,1.58,0,0,0,.47-.07.45.45,0,0,0,.33-.31,2,2,0,0,0,.13-.58c.05-.75.08-1.93.08-3.55V96.92c0-2.19,0-3.36,0-3.52,0-.55-.2-.86-.54-.92a2.41,2.41,0,0,0-.49-.06c-.08,0-.12,0-.12-.1s.08-.13.25-.13c.76,0,1.29,0,1.59,0l.63,0,.91,0c.17,0,.26,0,.26.13a.12.12,0,0,1-.13.1,2.41,2.41,0,0,0-.4,0,.56.56,0,0,0-.42.27,1.29,1.29,0,0,0-.16.67c0,.21,0,.54,0,1s0,1.3,0,2.54Z" transform="translate(-30.37 -39.06)"/><path class="logo-1" d="M273.2,102.32a4.62,4.62,0,0,0,.17,1.39.7.7,0,0,0,.45.5,3,3,0,0,0,.79.1c.08,0,.12,0,.12.1s-.09.12-.28.12l-1.67,0-1.52,0c-.17,0-.25,0-.25-.12s0-.1.13-.1a2,2,0,0,0,.65-.1c.2,0,.33-.23.39-.53a9.4,9.4,0,0,0,.08-1.54l0-9.36a3.35,3.35,0,0,1,0-.67c0-.1.08-.15.13-.15a.54.54,0,0,1,.28.2l.27.33,5,5.6,3.79,4.26L281.64,94a4.4,4.4,0,0,0-.1-1.14.65.65,0,0,0-.51-.4,4.62,4.62,0,0,0-.78-.08q-.13,0-.12-.12c0-.07.11-.11.32-.11.81,0,1.36,0,1.64,0l.5,0,.84,0c.18,0,.28,0,.29.11s-.06.12-.18.12a2.53,2.53,0,0,0-.38,0,.58.58,0,0,0-.47.39,2.91,2.91,0,0,0-.12,1.07l0,9.56c0,.52,0,.84,0,1s-.07.19-.13.19-.42-.3-1.16-1-2-2.1-4.12-4.42-3.41-3.85-4.13-4.68Z" transform="translate(-30.37 -39.06)"/><path class="logo-1" d="M297.37,96.92c0-2.19,0-3.37,0-3.52a1.41,1.41,0,0,0-.14-.64.72.72,0,0,0-.54-.3,3,3,0,0,0-.53,0c-.09,0-.14,0-.14-.1s.09-.13.26-.13c.92,0,1.51,0,1.79,0,1.08,0,2.29,0,3.61,0a5.5,5.5,0,0,0,.69-.07.45.45,0,0,1,.22-.08s.06.05.06.14-.05.34-.13.76,0,.7-.08,1.07c0,.11,0,.17-.11.18s-.12-.07-.12-.21a2.6,2.6,0,0,0-.1-.58.57.57,0,0,0-.27-.34,2.11,2.11,0,0,0-.86-.21c-.18,0-.55,0-1.1,0h-1.06c-.07,0-.1,0-.1.16v4.52c0,.11,0,.16.1.16l1.22,0h1.3a1,1,0,0,0,.75-.24c.1-.13.18-.2.23-.2s.09,0,.09.13-.06.39-.14.91-.06.81-.06,1.05v.18c0,.08-.05.12-.11.12s-.12,0-.12-.15a2.77,2.77,0,0,0-.06-.53.76.76,0,0,0-.18-.36,1.11,1.11,0,0,0-.64-.21c-.84,0-1.59-.08-2.27-.08a.1.1,0,0,0-.11.11V99.8q0,1.56,0,2.79a1.39,1.39,0,0,0,.37,1.08,2.55,2.55,0,0,0,1.48.25l.78,0a3,3,0,0,0,.75-.14,1.35,1.35,0,0,0,.72-1.18c0-.16.07-.24.14-.24s.11.09.1.24a6.6,6.6,0,0,1-.07.7,7.43,7.43,0,0,1-.14.88c0,.2-.12.32-.23.36a2,2,0,0,1-.66.07c-2.26,0-3.56-.07-3.9-.1l-1.55,0c-.17,0-.26,0-.26-.12s0-.09.12-.1a1.61,1.61,0,0,0,.49-.07.45.45,0,0,0,.33-.31,2,2,0,0,0,.13-.58c0-.74.08-1.93.08-3.55Z" transform="translate(-30.37 -39.06)"/><path class="logo-1" d="M317.55,104.76a5.32,5.32,0,0,1-2.14-.44.33.33,0,0,1-.19-.2,1.22,1.22,0,0,1-.05-.42,16.7,16.7,0,0,1,.08-1.73c0-.17.05-.26.13-.26s.11.06.11.17a2.82,2.82,0,0,0,.05.61,1.77,1.77,0,0,0,.87,1.27,2.65,2.65,0,0,0,1.49.4,2.17,2.17,0,0,0,1.72-.71,2.19,2.19,0,0,0,.56-1.46,2.85,2.85,0,0,0-.39-1.48,7.32,7.32,0,0,0-1.43-1.46l-.71-.61A7,7,0,0,1,316,96.55a3.39,3.39,0,0,1-.41-1.65q.06-2.85,3.27-2.94c.31,0,.59,0,.83,0s.45.09.64.14a4.1,4.1,0,0,0,.55.08c.11,0,.16,0,.16.11S321,93,321,94c0,.26,0,.38-.11.38s-.13-.07-.13-.21a1.91,1.91,0,0,0-.06-.42,1.3,1.3,0,0,0-.14-.39.8.8,0,0,0-.13-.23,1.37,1.37,0,0,0-.35-.28,1.75,1.75,0,0,0-.58-.26,4,4,0,0,0-.92-.09,2,2,0,0,0-1.38.48,1.8,1.8,0,0,0-.57,1.41,2,2,0,0,0,.4,1.24,11.29,11.29,0,0,0,1.52,1.5l.45.36a7.61,7.61,0,0,1,1.86,2,3.77,3.77,0,0,1,.44,1.85,4.3,4.3,0,0,1-.25,1.29,3.47,3.47,0,0,1-.39.73,3.53,3.53,0,0,1-.7.69A4.39,4.39,0,0,1,317.55,104.76Z" transform="translate(-30.37 -39.06)"/></svg>