<?xml version="1.0" encoding="utf-8"?>
<!-- Generator: Adobe Illustrator 24.1.1, SVG Export Plug-In . SVG Version: 6.00 Build 0)  -->
<svg version="1.1" id="Layer_1" xmlns="http://www.w3.org/2000/svg" xmlns:xlink="http://www.w3.org/1999/xlink" x="0px" y="0px"
	 viewBox="0 0 376 142" style="enable-background:new 0 0 376 142;" xml:space="preserve">
<style type="text/css">
	.st0-logo-1{fill:#E30613;}
	.st1-logo-1{fill:#575756;}
</style>

	<polygon class="st0-logo-1" points="156.2,77.2 166.6,77.2 166.6,49.9 196.5,77.2 217.4,77.2 217.4,39.1 206.5,39.1 206.5,66.3 
		174.1,39.2 156.2,39.2 156.2,77.2 	"/>
	<path class="st1-logo-1" d="M50.7,52.8h44v24.4H80.4l-1.1-1.2c-1.4,0.8-3.1,1.2-5,1.2H43.2c-8.5,0-12.8-2.7-12.8-8.2V47.6
		c0-5.6,4.3-8.4,12.8-8.4h51.4v7.3H51.2c-1,0-1.7,0.1-2.1,0.2c-0.3,0.1-0.5,0.3-0.5,0.6v21.6c0,0.4,0.2,0.7,0.5,0.8
		c0.4,0.1,1.1,0.2,2.1,0.2h22.7c1,0,1.7-0.1,2-0.2c0.3-0.1,0.5-0.4,0.5-0.8v-9H50.7V52.8L50.7,52.8z M98.5,77.2h53.7v-7.3h-35.9
		v-8.4h35.8V54h-35.8v-7.5h35.8v-7.3H98.5V77.2L98.5,77.2z M221.3,77.2v-38h53.6v7.3h-35.8V54h35.8v7.4h-35.8v8.4H275v7.3H221.3
		L221.3,77.2z M278.9,77.2v-38h51.3c8.5,0,12.8,2.8,12.8,8.4V53c0,1.6-0.4,2.9-1.1,4.1c-0.7,1.2-1.7,2-3,2.5
		c-1.4,0.8-3.6,1.3-6.6,1.5l13.4,16h-20.7l-12.5-15.8h-15.3v15.9L278.9,77.2L278.9,77.2z M322.1,46.5h-25V54h25c1,0,1.7-0.1,2-0.2
		c0.4-0.1,0.6-0.4,0.6-0.7v-5.8c0-0.3-0.2-0.5-0.6-0.6C323.8,46.5,323.1,46.5,322.1,46.5L322.1,46.5z M52.2,84.2v0.3h271.5v-0.3
		H52.2z M65.9,102.3L65.9,102.3c0.8-2.5,1.7-5.3,2.6-8.3c0.1-0.5,0.2-0.9,0.2-1c0-0.2-0.1-0.3-0.2-0.4c-0.1-0.1-0.4-0.1-0.8-0.1
		c-0.1,0-0.2,0-0.2-0.1c0-0.1,0.1-0.1,0.3-0.1c0.9,0,1.5,0,1.7,0c0.1,0,0.3,0,0.5,0c0.3,0,0.5,0,0.8,0c0.1,0,0.2,0,0.2,0.1
		c0,0.1,0,0.1-0.1,0.1c-0.1,0-0.3,0-0.6,0.1c-0.2,0.1-0.4,0.3-0.6,0.6c-0.2,0.3-0.3,0.7-0.5,1.2c-1,3.2-2,6.2-3,9.1
		c-0.2,0.6-0.3,1-0.4,1.1c-0.1,0.2-0.2,0.3-0.3,0.3c-0.1,0-0.1-0.1-0.2-0.2c-0.1-0.1-0.2-0.3-0.3-0.7l-3.2-9.1h0
		c-1.1,3-2.3,6.1-3.4,9.1c-0.1,0.3-0.2,0.6-0.3,0.7c-0.1,0.1-0.2,0.2-0.3,0.2c-0.1,0-0.1-0.1-0.2-0.2c-0.1-0.2-0.2-0.5-0.4-1
		l-2.9-9.7c-0.1-0.4-0.2-0.7-0.4-0.9c-0.1-0.2-0.3-0.3-0.5-0.4c-0.3-0.1-0.5-0.1-0.7-0.1c-0.1,0-0.1,0-0.2-0.1
		c0-0.1,0.1-0.1,0.3-0.1c1,0,1.6,0,1.9,0c0.1,0,0.3,0,0.6,0c0.3,0,0.7,0,1.1,0c0.2,0,0.3,0,0.3,0.1c0,0.1-0.1,0.1-0.2,0.1
		c-0.1,0-0.2,0-0.3,0c-0.1,0-0.2,0-0.4,0.1c-0.1,0-0.2,0.2-0.2,0.4c0,0,0,0.1,0,0.2c0,0.1,0,0.2,0.1,0.3c0.1,0.3,0.1,0.6,0.2,0.9
		c0.7,2.7,1.5,5.4,2.2,7.9h0l3.5-9.3c0.2-0.5,0.3-0.8,0.4-0.7c0.1,0,0.1,0.1,0.2,0.2c0.1,0.1,0.1,0.3,0.2,0.6L65.9,102.3z
		 M84.1,99.8c0,1.6,0,2.8,0.1,3.5c0,0.2,0.1,0.4,0.2,0.6c0.1,0.2,0.2,0.3,0.5,0.3c0.3,0,0.5,0.1,0.7,0.1c0.1,0,0.1,0,0.1,0.1
		c0,0.1-0.1,0.1-0.3,0.1c-1,0-1.7,0-1.9,0c-0.3,0-0.8,0-1.5,0c-0.2,0-0.3,0-0.3-0.1c0-0.1,0-0.1,0.1-0.1c0.2,0,0.3,0,0.5-0.1
		c0.2,0,0.3-0.1,0.3-0.3c0.1-0.1,0.1-0.3,0.1-0.6c0.1-0.7,0.1-1.9,0.1-3.6v-2.9c0-2.2,0-3.4,0-3.5c0-0.5-0.2-0.9-0.5-0.9
		c-0.2,0-0.4-0.1-0.5-0.1c-0.1,0-0.1,0-0.1-0.1c0-0.1,0.1-0.1,0.3-0.1c0.8,0,1.3,0,1.6,0c0.1,0,0.3,0,0.6,0c0.3,0,0.7,0,0.9,0
		c0.2,0,0.3,0,0.3,0.1c0,0.1-0.1,0.1-0.1,0.1c-0.1,0-0.2,0-0.4,0c-0.2,0-0.3,0.1-0.4,0.3c-0.1,0.1-0.1,0.4-0.2,0.7c0,0.2,0,0.5,0,1
		c0,0.5,0,1.3,0,2.5V99.8z M99.5,102.3c0,0.7,0.1,1.1,0.2,1.4c0.1,0.3,0.2,0.4,0.4,0.5c0.3,0.1,0.6,0.1,0.8,0.1c0.1,0,0.1,0,0.1,0.1
		c0,0.1-0.1,0.1-0.3,0.1c-0.9,0-1.5,0-1.7,0c-0.2,0-0.7,0-1.5,0c-0.2,0-0.3,0-0.3-0.1c0-0.1,0-0.1,0.1-0.1c0.2,0,0.4,0,0.6-0.1
		c0.2-0.1,0.3-0.2,0.4-0.5c0.1-0.3,0.1-0.8,0.1-1.5l0-9.4c0-0.3,0-0.6,0-0.7c0-0.1,0.1-0.2,0.1-0.2c0.1,0,0.2,0.1,0.3,0.2
		c0.1,0.1,0.2,0.2,0.3,0.3c0.6,0.7,2.3,2.5,5,5.6c1.8,2,3.1,3.4,3.8,4.3l-0.2-8.3c0-0.5,0-0.9-0.1-1.1c-0.1-0.2-0.3-0.4-0.5-0.4
		c-0.3-0.1-0.6-0.1-0.8-0.1c-0.1,0-0.1,0-0.1-0.1c0-0.1,0.1-0.1,0.3-0.1c0.8,0,1.4,0,1.6,0c0.1,0,0.3,0,0.5,0c0.2,0,0.5,0,0.8,0
		c0.2,0,0.3,0,0.3,0.1c0,0.1-0.1,0.1-0.2,0.1c-0.1,0-0.2,0-0.4,0c-0.2,0-0.4,0.2-0.5,0.4c-0.1,0.2-0.1,0.6-0.1,1.1l0,9.6
		c0,0.5,0,0.8,0,1c0,0.1-0.1,0.2-0.1,0.2c0,0-0.4-0.3-1.2-1c-0.6-0.6-2-2.1-4.1-4.4c-2-2.3-3.4-3.8-4.1-4.7L99.5,102.3z M123.7,96.9
		c0-2.2,0-3.4,0-3.5c0-0.3-0.1-0.5-0.1-0.6c-0.1-0.2-0.3-0.3-0.5-0.3c-0.2,0-0.3,0-0.5,0c-0.1,0-0.1,0-0.1-0.1
		c0-0.1,0.1-0.1,0.3-0.1c0.9,0,1.5,0,1.8,0c0.1,0,0.4,0,0.8,0c0.4,0,0.9,0,1.3,0c0.4,0,0.9,0,1.4,0c0.5,0,1.1,0.1,1.7,0.2
		c0.6,0.1,1.2,0.3,1.7,0.5c0.6,0.3,1.1,0.7,1.5,1.2c0.4,0.4,0.8,1,1.1,1.6c0.3,0.7,0.5,1.5,0.5,2.5c0,1-0.2,1.9-0.5,2.7
		c-0.3,0.8-0.7,1.4-1.2,1.9c-0.2,0.2-0.4,0.4-0.6,0.6c-0.3,0.2-0.6,0.4-1,0.6c-0.8,0.4-1.8,0.6-3.2,0.7c-0.7,0-1.5,0-2.2-0.1
		c-0.7-0.1-1.2-0.1-1.3-0.1c-0.3,0-0.8,0-1.6,0c-0.2,0-0.3,0-0.3-0.1c0-0.1,0-0.1,0.1-0.1c0.2,0,0.3,0,0.5-0.1
		c0.2,0,0.3-0.1,0.3-0.3c0.1-0.1,0.1-0.3,0.1-0.6c0.1-0.7,0.1-1.9,0.1-3.6V96.9z M125,98.7c0,1.9,0,3.1,0,3.5c0,0.2,0,0.4,0.1,0.7
		c0,0.3,0,0.5,0.1,0.6c0.1,0.2,0.3,0.3,0.7,0.4c0.4,0.2,1,0.2,2,0.2c1.5,0,2.8-0.5,3.8-1.5c0.4-0.4,0.7-1,1-1.7
		c0.1-0.3,0.2-0.7,0.2-1.1c0-0.4,0.1-0.7,0.1-1.1c0-0.5,0-1-0.1-1.4c-0.1-0.4-0.2-0.8-0.4-1.1c-0.1-0.3-0.3-0.6-0.5-0.9
		c-0.2-0.2-0.3-0.5-0.5-0.6c-0.7-0.8-1.6-1.3-2.4-1.5c-0.9-0.2-1.8-0.3-2.7-0.3c-0.2,0-0.4,0-0.6,0c-0.2,0-0.4,0.1-0.5,0.1
		c-0.1,0.1-0.2,0.2-0.2,0.3c0,0.8,0,2,0,3.5V98.7z M174,102.4c0,0.3,0.1,0.6,0.2,1c0.1,0.3,0.3,0.6,0.6,0.7c0.5,0.1,0.8,0.2,1,0.1
		c0.1,0,0.1,0,0.1,0.1c0,0.1-0.1,0.1-0.3,0.1c-0.8,0-1.6,0-2.6-0.1c-0.3,0-0.5-0.1-0.4-0.2c0-0.1,0-0.1,0.1-0.1
		c0.1-0.1,0.1-0.3,0.1-0.6l-0.8-8.4h0l-3.9,8.5c-0.3,0.6-0.4,0.9-0.5,0.9c-0.1,0-0.2-0.2-0.5-0.8c-0.8-1.6-1.4-2.8-1.8-3.8
		c-0.7-1.5-1.4-3-2.1-4.7H163l-0.6,7.6c0,0.3,0,0.6,0,0.8c0,0.3,0.1,0.4,0.4,0.5c0.3,0.1,0.5,0.1,0.6,0.1c0.1,0,0.1,0,0.1,0.1
		c0,0.1-0.1,0.1-0.3,0.1c-0.7,0-1.2,0-1.5,0c-0.3,0-0.7,0-1.3,0c-0.2,0-0.3,0-0.3-0.1c0-0.1,0.1-0.1,0.2-0.1c0.1,0,0.3,0,0.5,0
		c0.3-0.1,0.4-0.2,0.5-0.5c0.1-0.3,0.1-0.5,0.1-0.9l1.1-10.7c0-0.2,0.1-0.3,0.2-0.3c0.1,0,0.2,0.1,0.2,0.2l4.8,10.3l4.6-10.3
		c0.1-0.2,0.1-0.2,0.2-0.3c0.1,0,0.1,0,0.1,0.1c0,0.1,0,0.2,0,0.3L174,102.4z M191.1,92.6c0.2-0.4,0.3-0.7,0.3-0.6
		c0.1,0,0.2,0.2,0.4,0.6c0.9,2.3,2.1,5.6,3.7,9.8c0.3,0.7,0.5,1.2,0.8,1.4c0.2,0.2,0.4,0.4,0.6,0.4c0.3,0.1,0.5,0.1,0.6,0.1
		c0.1,0,0.2,0,0.2,0.1c0,0.1-0.1,0.1-0.3,0.1c-0.4,0-1.2,0-2.5,0c-0.3,0-0.5,0-0.5-0.1c0-0.1,0-0.1,0.1-0.1c0.1,0,0.1-0.1,0.1-0.1
		c0-0.1,0-0.2,0-0.3l-1.5-4c0-0.1-0.1-0.1-0.1-0.1h-3.4c-0.1,0-0.1,0-0.2,0.1l-0.9,2.9c-0.1,0.4-0.2,0.8-0.2,1.1
		c0,0.2,0.1,0.3,0.2,0.3c0.1,0.1,0.2,0.1,0.4,0.1h0.2c0.1,0,0.2,0,0.2,0.1c0,0.1-0.1,0.1-0.2,0.1c-0.5,0-0.9,0-1.2,0
		c-0.3,0-0.9,0-1.8,0c-0.2,0-0.3,0-0.3-0.1c0-0.1,0.1-0.1,0.1-0.1c0.1,0,0.3,0,0.5,0c0.4-0.1,0.6-0.2,0.8-0.5c0.2-0.3,0.4-0.6,0.5-1
		L191.1,92.6z M192.7,99.1c0.1,0,0.1,0,0.1-0.1l-1.5-4.4c-0.1-0.3-0.2-0.3-0.2,0l-1.4,4.4c0,0.1,0,0.1,0,0.1H192.7z M214.7,104.8
		c-2.3,0-4-0.6-5.2-1.8c-0.7-0.7-1.2-1.5-1.5-2.4c-0.3-0.9-0.4-1.7-0.4-2.5c0-0.6,0.1-1.3,0.4-2.1c0.3-0.8,0.7-1.6,1.4-2.3
		c0.5-0.5,1.1-0.9,1.9-1.3c0.8-0.3,1.8-0.5,3-0.5c0.7,0,1.5,0.1,2.3,0.2c0.6,0.1,1.1,0.2,1.6,0.2c0.1,0,0.2,0.1,0.2,0.2
		c0,0.1,0,0.4-0.1,0.9c0,0.7,0,1.3,0,1.7c0,0.2-0.1,0.4-0.1,0.3c-0.1,0-0.1-0.1-0.1-0.3c0-0.3-0.1-0.7-0.2-0.9
		c-0.1-0.3-0.3-0.5-0.5-0.7c-0.6-0.6-1.7-0.9-3.2-0.9c-0.5,0-1,0-1.4,0.1c-0.4,0.1-0.7,0.2-1,0.3c-0.3,0.1-0.5,0.2-0.7,0.4
		c-0.2,0.1-0.4,0.3-0.5,0.4c-0.6,0.6-0.9,1.2-1.1,1.9c-0.2,0.7-0.3,1.5-0.3,2.3c0,1.6,0.5,3,1.6,4.1c1,1.2,2.4,1.8,4.1,1.8
		c0.6,0,1.1-0.1,1.6-0.2c0.5-0.1,0.8-0.3,1.2-0.6c0.2-0.2,0.3-0.4,0.4-0.7c0.1-0.3,0.2-0.5,0.2-0.7c0-0.2,0.1-0.2,0.2-0.2
		c0.1,0,0.1,0.1,0.1,0.2c0,0.1,0,0.4-0.1,0.9c-0.1,0.5-0.1,0.9-0.2,1.2c0,0.1-0.1,0.2-0.1,0.3c-0.1,0.1-0.1,0.1-0.3,0.2
		c-0.3,0.1-0.8,0.2-1.3,0.3C215.7,104.7,215.2,104.8,214.7,104.8L214.7,104.8z M241.2,99.8c0,1.6,0,2.8,0.1,3.5
		c0,0.2,0.1,0.4,0.2,0.6c0.1,0.2,0.2,0.3,0.5,0.3c0.3,0,0.5,0.1,0.7,0.1c0.1,0,0.1,0,0.1,0.1c0,0.1-0.1,0.1-0.3,0.1
		c-1,0-1.7,0-1.9,0c-0.3,0-0.8,0-1.5,0c-0.2,0-0.3,0-0.3-0.1c0-0.1,0-0.1,0.1-0.1c0.2,0,0.3,0,0.5-0.1c0.2,0,0.3-0.1,0.3-0.3
		c0.1-0.1,0.1-0.3,0.1-0.6c0.1-0.7,0.1-1.9,0.1-3.6v-1.7c0-0.1,0-0.1-0.1-0.1h-6.7c-0.1,0-0.1,0-0.1,0.1v1.7c0,1.6,0,2.8,0.1,3.6
		c0,0.2,0.1,0.4,0.2,0.6c0.1,0.2,0.2,0.3,0.5,0.3c0.3,0,0.5,0.1,0.7,0.1c0.1,0,0.1,0,0.1,0.1c0,0.1-0.1,0.1-0.3,0.1
		c-1,0-1.7,0-1.9,0c-0.3,0-0.8,0-1.5,0c-0.2,0-0.3,0-0.3-0.1c0-0.1,0-0.1,0.1-0.1c0.2,0,0.3,0,0.5-0.1c0.2,0,0.3-0.1,0.3-0.3
		c0.1-0.1,0.1-0.3,0.1-0.6c0.1-0.7,0.1-1.9,0.1-3.6v-2.9c0-2.2,0-3.4,0-3.5c0-0.3-0.1-0.5-0.1-0.6c-0.1-0.2-0.3-0.3-0.5-0.3
		c-0.2,0-0.3,0-0.5,0c-0.1,0-0.1,0-0.1-0.1c0-0.1,0.1-0.1,0.3-0.1c0.9,0,1.5,0,1.8,0c0.1,0,0.3,0,0.6,0c0.3,0,0.7,0,0.9,0
		c0.2,0,0.3,0,0.3,0.1c0,0.1-0.1,0.1-0.1,0.1c-0.1,0-0.2,0-0.4,0c-0.2,0-0.3,0.1-0.4,0.3c-0.1,0.1-0.1,0.4-0.2,0.7c0,0.2,0,0.5,0,1
		c0,0.5,0,1.3,0,2.5v0.3c0,0.1,0,0.1,0.1,0.1h6.7c0.1,0,0.1,0,0.1-0.1v-0.3c0-2.2,0-3.4,0-3.5c0-0.3-0.1-0.5-0.1-0.6
		c-0.1-0.2-0.3-0.3-0.5-0.3c-0.2,0-0.3,0-0.5,0c-0.1,0-0.1,0-0.1-0.1c0-0.1,0.1-0.1,0.3-0.1c0.9,0,1.5,0,1.8,0c0.1,0,0.3,0,0.6,0
		c0.3,0,0.7,0,0.9,0c0.2,0,0.3,0,0.3,0.1c0,0.1-0.1,0.1-0.1,0.1c-0.1,0-0.2,0-0.4,0c-0.2,0-0.3,0.1-0.4,0.3
		c-0.1,0.1-0.1,0.4-0.2,0.7c0,0.2,0,0.5,0,1c0,0.5,0,1.3,0,2.5V99.8z M257.8,99.8c0,1.6,0,2.8,0.1,3.5c0,0.2,0.1,0.4,0.2,0.6
		c0.1,0.2,0.2,0.3,0.5,0.3c0.3,0,0.5,0.1,0.7,0.1c0.1,0,0.1,0,0.1,0.1c0,0.1-0.1,0.1-0.3,0.1c-1,0-1.7,0-1.9,0c-0.3,0-0.8,0-1.5,0
		c-0.2,0-0.3,0-0.3-0.1c0-0.1,0-0.1,0.1-0.1c0.2,0,0.3,0,0.5-0.1c0.2,0,0.3-0.1,0.3-0.3c0.1-0.1,0.1-0.3,0.1-0.6
		c0.1-0.7,0.1-1.9,0.1-3.6v-2.9c0-2.2,0-3.4,0-3.5c0-0.5-0.2-0.9-0.5-0.9c-0.2,0-0.4-0.1-0.5-0.1c-0.1,0-0.1,0-0.1-0.1
		c0-0.1,0.1-0.1,0.3-0.1c0.8,0,1.3,0,1.6,0c0.1,0,0.3,0,0.6,0c0.3,0,0.7,0,0.9,0c0.2,0,0.3,0,0.3,0.1c0,0.1-0.1,0.1-0.1,0.1
		c-0.1,0-0.2,0-0.4,0c-0.2,0-0.3,0.1-0.4,0.3c-0.1,0.1-0.1,0.4-0.2,0.7c0,0.2,0,0.5,0,1c0,0.5,0,1.3,0,2.5V99.8z M273.2,102.3
		c0,0.7,0.1,1.1,0.2,1.4c0.1,0.3,0.2,0.4,0.4,0.5c0.3,0.1,0.6,0.1,0.8,0.1c0.1,0,0.1,0,0.1,0.1c0,0.1-0.1,0.1-0.3,0.1
		c-0.9,0-1.5,0-1.7,0c-0.2,0-0.7,0-1.5,0c-0.2,0-0.3,0-0.3-0.1c0-0.1,0-0.1,0.1-0.1c0.2,0,0.4,0,0.6-0.1c0.2-0.1,0.3-0.2,0.4-0.5
		c0.1-0.3,0.1-0.8,0.1-1.5l0-9.4c0-0.3,0-0.6,0-0.7c0-0.1,0.1-0.2,0.1-0.2c0.1,0,0.2,0.1,0.3,0.2c0.1,0.1,0.2,0.2,0.3,0.3
		c0.6,0.7,2.3,2.5,5,5.6c1.8,2,3.1,3.4,3.8,4.3l-0.2-8.3c0-0.5,0-0.9-0.1-1.1c-0.1-0.2-0.3-0.4-0.5-0.4c-0.3-0.1-0.6-0.1-0.8-0.1
		c-0.1,0-0.1,0-0.1-0.1c0-0.1,0.1-0.1,0.3-0.1c0.8,0,1.4,0,1.6,0c0.1,0,0.3,0,0.5,0c0.2,0,0.5,0,0.8,0c0.2,0,0.3,0,0.3,0.1
		c0,0.1-0.1,0.1-0.2,0.1c-0.1,0-0.2,0-0.4,0c-0.2,0-0.4,0.2-0.5,0.4c-0.1,0.2-0.1,0.6-0.1,1.1l0,9.6c0,0.5,0,0.8,0,1
		c0,0.1-0.1,0.2-0.1,0.2c0,0-0.4-0.3-1.2-1c-0.6-0.6-2-2.1-4.1-4.4c-2-2.3-3.4-3.8-4.1-4.7L273.2,102.3z M297.4,96.9
		c0-2.2,0-3.4,0-3.5c0-0.3-0.1-0.5-0.1-0.6c-0.1-0.2-0.3-0.3-0.5-0.3c-0.2,0-0.3,0-0.5,0c-0.1,0-0.1,0-0.1-0.1
		c0-0.1,0.1-0.1,0.3-0.1c0.9,0,1.5,0,1.8,0c1.1,0,2.3,0,3.6,0c0.3,0,0.5,0,0.7-0.1c0.1,0,0.1-0.1,0.2-0.1c0,0,0.1,0.1,0.1,0.1
		c0,0.1-0.1,0.3-0.1,0.8c0,0.3,0,0.7-0.1,1.1c0,0.1,0,0.2-0.1,0.2c-0.1,0-0.1-0.1-0.1-0.2c0-0.1,0-0.3-0.1-0.6
		c0-0.1-0.1-0.2-0.3-0.3c-0.2-0.1-0.4-0.2-0.9-0.2c-0.2,0-0.6,0-1.1,0c-0.5,0-0.9,0-1.1,0c-0.1,0-0.1,0.1-0.1,0.2v4.5
		c0,0.1,0,0.2,0.1,0.2c0.2,0,0.6,0,1.2,0c0.6,0,1.1,0,1.3,0c0.4,0,0.6-0.1,0.8-0.2c0.1-0.1,0.2-0.2,0.2-0.2c0.1,0,0.1,0,0.1,0.1
		c0,0.1-0.1,0.4-0.1,0.9c0,0.5-0.1,0.8-0.1,1c0,0.1,0,0.1,0,0.2c0,0.1,0,0.1-0.1,0.1c-0.1,0-0.1,0-0.1-0.1c0-0.1,0-0.3-0.1-0.5
		c0-0.1-0.1-0.2-0.2-0.4c-0.1-0.1-0.3-0.2-0.6-0.2c-0.8-0.1-1.6-0.1-2.3-0.1c-0.1,0-0.1,0-0.1,0.1v1.4c0,1,0,2,0,2.8
		c0,0.5,0.1,0.9,0.4,1.1c0.2,0.2,0.7,0.3,1.5,0.3c0.2,0,0.5,0,0.8,0c0.3,0,0.5-0.1,0.8-0.1c0.4-0.2,0.6-0.5,0.7-1.2
		c0-0.2,0.1-0.2,0.1-0.2c0.1,0,0.1,0.1,0.1,0.2c0,0.1,0,0.3-0.1,0.7c0,0.4-0.1,0.7-0.1,0.9c0,0.2-0.1,0.3-0.2,0.4
		c-0.1,0-0.3,0.1-0.7,0.1c-2.3,0-3.6-0.1-3.9-0.1c-0.3,0-0.8,0-1.6,0c-0.2,0-0.3,0-0.3-0.1c0-0.1,0-0.1,0.1-0.1c0.2,0,0.3,0,0.5-0.1
		c0.2,0,0.3-0.1,0.3-0.3c0.1-0.1,0.1-0.3,0.1-0.6c0.1-0.7,0.1-1.9,0.1-3.5V96.9z M317.5,104.8c-0.8,0-1.5-0.1-2.1-0.4
		c-0.1-0.1-0.2-0.1-0.2-0.2c0-0.1,0-0.2,0-0.4c0-0.9,0-1.4,0.1-1.7c0-0.2,0.1-0.3,0.1-0.3c0.1,0,0.1,0.1,0.1,0.2c0,0.2,0,0.4,0,0.6
		c0.1,0.6,0.4,1,0.9,1.3c0.4,0.3,0.9,0.4,1.5,0.4c0.8,0,1.3-0.2,1.7-0.7c0.4-0.4,0.6-0.9,0.6-1.5c0-0.5-0.1-1-0.4-1.5
		c-0.3-0.4-0.8-0.9-1.4-1.5l-0.7-0.6c-0.8-0.7-1.4-1.3-1.6-1.9c-0.3-0.6-0.4-1.1-0.4-1.7c0-1.9,1.1-2.9,3.3-2.9c0.3,0,0.6,0,0.8,0
		c0.2,0,0.4,0.1,0.6,0.1c0.3,0.1,0.5,0.1,0.6,0.1c0.1,0,0.2,0,0.2,0.1c0,0.1,0,0.6-0.1,1.7c0,0.3,0,0.4-0.1,0.4
		c-0.1,0-0.1-0.1-0.1-0.2c0-0.1,0-0.3-0.1-0.4c0-0.2-0.1-0.3-0.1-0.4c0-0.1-0.1-0.1-0.1-0.2c-0.1-0.1-0.2-0.2-0.3-0.3
		c-0.1-0.1-0.3-0.2-0.6-0.3c-0.3-0.1-0.6-0.1-0.9-0.1c-0.6,0-1,0.2-1.4,0.5c-0.4,0.3-0.6,0.8-0.6,1.4c0,0.4,0.1,0.8,0.4,1.2
		c0.3,0.4,0.8,0.9,1.5,1.5l0.4,0.4c0.9,0.7,1.5,1.4,1.9,2c0.3,0.6,0.4,1.2,0.4,1.8c0,0.3-0.1,0.8-0.3,1.3c-0.1,0.2-0.2,0.5-0.4,0.7
		c-0.2,0.2-0.4,0.5-0.7,0.7C319.2,104.5,318.4,104.8,317.5,104.8z"/>

</svg>
