<svg xmlns="http://www.w3.org/2000/svg" viewBox="0 0 57.42 57.42"><path d="M166.31-20.89a25,25,0,1,0,25,25A25,25,0,0,0,166.31-20.89Zm0,49.19A24.22,24.22,0,0,1,142.12,4.11a24.19,24.19,0,1,1,48.37,0A24.21,24.21,0,0,1,166.31,28.3Z" transform="translate(-137.6 24.6)"/><path d="M166.31-24.6A28.74,28.74,0,0,0,137.6,4.11a28.71,28.71,0,0,0,57.42,0A28.74,28.74,0,0,0,166.31-24.6Zm0,57A28.3,28.3,0,0,1,138,4.11a28.27,28.27,0,0,1,56.53,0A28.3,28.3,0,0,1,166.31,32.37Z" transform="translate(-137.6 24.6)"/><polygon points="21.47 39.93 40.7 28.71 21.47 17.49 21.47 39.93"/></svg>